<svg width="15" height="15" viewBox="0 0 15 15" fill="none" xmlns="http://www.w3.org/2000/svg">
<path fill-rule="evenodd" clip-rule="evenodd" d="M0 2C0 0.89543 0.895431 0 2 0H5.5C6.43192 0 7.21497 0.637386 7.43699 1.5H13C14.1046 1.5 15 2.39543 15 3.5V13C15 14.1046 14.1046 15 13 15H2C0.89543 15 0 14.1046 0 13V7V3.5V2ZM10.5783 6.56031C10.8877 6.10286 10.7678 5.48117 10.3103 5.17172C9.85286 4.86227 9.23117 4.98224 8.92172 5.43969L6.67588 8.75962L6.05848 7.91147C5.73345 7.46496 5.10799 7.36649 4.66147 7.69152C4.21496 8.01655 4.11649 8.64201 4.44152 9.08852L5.8974 11.0885C6.08918 11.352 6.3973 11.5055 6.72312 11.4999C7.04893 11.4942 7.35158 11.3302 7.53417 11.0603L10.5783 6.56031Z" fill="#7C9BA9"/>
</svg>
