<svg width="15" height="15" viewBox="0 0 15 15" fill="none" xmlns="http://www.w3.org/2000/svg">
<path fill-rule="evenodd" clip-rule="evenodd" d="M2 0C0.895431 0 0 0.89543 0 2V2.25H15V2C15 0.895431 14.1046 0 13 0H2ZM15 3.375H0V13C0 14.1046 0.89543 15 2 15H13C14.1046 15 15 14.1046 15 13V3.375ZM2.25 6.9375C2.25 6.41973 2.66973 6 3.1875 6C3.70527 6 4.125 6.41973 4.125 6.9375V7.3125C4.125 7.83027 3.70527 8.25 3.1875 8.25C2.66973 8.25 2.25 7.83027 2.25 7.3125V6.9375ZM7.6875 6C7.16973 6 6.75 6.41973 6.75 6.9375V7.3125C6.75 7.83027 7.16973 8.25 7.6875 8.25C8.20527 8.25 8.625 7.83027 8.625 7.3125V6.9375C8.625 6.41973 8.20527 6 7.6875 6ZM11.25 6.9375C11.25 6.41973 11.6697 6 12.1875 6C12.7053 6 13.125 6.41973 13.125 6.9375V7.3125C13.125 7.83027 12.7053 8.25 12.1875 8.25C11.6697 8.25 11.25 7.83027 11.25 7.3125V6.9375ZM3.1875 9.75C2.66973 9.75 2.25 10.1697 2.25 10.6875V11.0625C2.25 11.5803 2.66973 12 3.1875 12C3.70527 12 4.125 11.5803 4.125 11.0625V10.6875C4.125 10.1697 3.70527 9.75 3.1875 9.75ZM6.75 10.6875C6.75 10.1697 7.16973 9.75 7.6875 9.75C8.20527 9.75 8.625 10.1697 8.625 10.6875V11.0625C8.625 11.5803 8.20527 12 7.6875 12C7.16973 12 6.75 11.5803 6.75 11.0625V10.6875ZM12.1875 9.75C11.6697 9.75 11.25 10.1697 11.25 10.6875V11.0625C11.25 11.5803 11.6697 12 12.1875 12C12.7053 12 13.125 11.5803 13.125 11.0625V10.6875C13.125 10.1697 12.7053 9.75 12.1875 9.75Z" fill="#7C9BA9"/>
</svg>
