<svg width="20" height="19" viewBox="0 0 20 19" fill="none" xmlns="http://www.w3.org/2000/svg">
<path fill-rule="evenodd" clip-rule="evenodd" d="M19.8022 19L0.000205994 19L0.000203559 1.18095e-06L19.8022 0L19.8022 19ZM19.8022 19L0.000205994 19L0.000203559 1.18095e-06L19.8022 0L19.8022 19Z" fill="#AECAD5"/>
<path fill-rule="evenodd" clip-rule="evenodd" d="M8.97703 17.3691L13.548 12.9833C13.8533 12.6904 14.0265 12.2866 14.0265 11.867L14.0265 3.95819C14.0265 3.08735 13.284 2.37484 12.3764 2.37484L4.95061 2.37485C4.29055 2.37485 3.69649 2.75485 3.43246 3.33277L0.742684 9.35741C0.0496131 10.9249 1.24599 12.6666 3.01992 12.6666L7.68164 12.6666L6.89781 16.2925C6.81531 16.6883 6.93907 17.0921 7.2361 17.3771C7.7229 17.8362 8.49848 17.8362 8.97703 17.3691ZM17.3269 2.37484C16.4193 2.37484 15.6767 3.08735 15.6767 3.95819L15.6767 10.2916C15.6767 11.1624 16.4193 11.8749 17.3269 11.8749C18.2345 11.8749 18.977 11.1624 18.977 10.2916L18.977 3.95819C18.977 3.08735 18.2345 2.37484 17.3269 2.37484Z" fill="#AECAD5"/>
</svg>
