<svg width="12" height="8" viewBox="0 0 12 8" fill="none" xmlns="http://www.w3.org/2000/svg">
<path d="M6.00012 2.40039C5.09739 2.40039 4.36377 3.11772 4.36377 4.0004C4.36377 4.88308 5.09739 5.60041 6.00012 5.60041C6.90285 5.60041 7.63647 4.88308 7.63647 4.0004C7.63647 3.11772 6.90283 2.40039 6.00012 2.40039Z" fill="#7C9BA9"/>
<path d="M6 0C3.27272 0 0.943644 1.65865 0 4C0.943644 6.34133 3.27272 8 6 8C8.72999 8 11.0564 6.34133 12 4C11.0564 1.65865 8.72999 0 6 0ZM6 6.66665C4.49455 6.66665 3.27272 5.47197 3.27272 3.99997C3.27272 2.52797 4.49455 1.33333 6 1.33333C7.50545 1.33333 8.72728 2.528 8.72728 4C8.72728 5.472 7.50545 6.66665 6 6.66665Z" fill="#7C9BA9"/>
</svg>
