<svg width="72" height="13" viewBox="0 0 72 13" fill="none" xmlns="http://www.w3.org/2000/svg">
<path d="M13.0382 4.70724C12.8808 4.22559 12.4513 3.91436 11.9439 3.91436H8.67217L7.64187 0.789892C7.4835 0.309587 7.05488 0 6.54899 0C6.54738 0 6.54571 -1.40315e-08 6.5441 2.55273e-05C6.03614 0.00201775 5.6077 0.315436 5.45263 0.798499L4.45236 3.91436H1.15335C0.644721 3.91436 0.214872 4.22663 0.0582894 4.70988C-0.0983192 5.19312 0.0668577 5.69766 0.479109 5.99522L3.14836 7.9219L2.12093 11.0377C1.96192 11.5199 2.12433 12.0252 2.53469 12.3249C2.74079 12.4754 2.97735 12.5507 3.21407 12.5507C3.44863 12.5507 3.68333 12.4767 3.88841 12.3287L6.56229 10.3987L9.2044 12.3255C9.6143 12.6244 10.1452 12.6258 10.5567 12.3292C10.9683 12.0326 11.1341 11.5291 10.9792 11.0464L9.97614 7.9219L12.6227 5.99192C13.0324 5.69314 13.1955 5.18888 13.0382 4.70724Z" fill="#EFC74C"/>
<path d="M28.1456 4.70724C27.9761 4.22559 27.5136 3.91436 26.9672 3.91436H23.4437L22.3342 0.789892C22.1636 0.309587 21.7021 0 21.1572 0C21.1555 0 21.1537 -1.40315e-08 21.152 2.55273e-05C20.605 0.00201775 20.1436 0.315436 19.9766 0.798499L18.8993 3.91436H15.3466C14.7988 3.91436 14.3359 4.22663 14.1673 4.70988C13.9986 5.19312 14.1765 5.69766 14.6205 5.99522L17.495 7.9219L16.3886 11.0377C16.2173 11.5199 16.3922 12.0252 16.8342 12.3249C17.0561 12.4754 17.3109 12.5507 17.5658 12.5507C17.8184 12.5507 18.0712 12.4767 18.292 12.3287L21.1716 10.3987L24.0169 12.3255C24.4584 12.6244 25.03 12.6258 25.4733 12.3292C25.9165 12.0326 26.0951 11.5291 25.9283 11.0464L24.848 7.9219L27.6982 5.99192C28.1394 5.69314 28.3151 5.18888 28.1456 4.70724Z" fill="#EFC74C"/>
<path d="M42.2549 4.70724C42.0976 4.22559 41.6681 3.91436 41.1607 3.91436H37.889L36.8587 0.789892C36.7003 0.309587 36.2717 0 35.7658 0C35.7642 0 35.7625 -1.40315e-08 35.7609 2.55273e-05C35.2529 0.00201775 34.8245 0.315436 34.6694 0.798499L33.6692 3.91436H30.3701C29.8615 3.91436 29.4317 4.22663 29.2751 4.70988C29.1185 5.19312 29.2837 5.69766 29.6959 5.99522L32.3652 7.9219L31.3377 11.0377C31.1787 11.5199 31.3411 12.0252 31.7515 12.3249C31.9576 12.4754 32.1941 12.5507 32.4309 12.5507C32.6654 12.5507 32.9001 12.4767 33.1052 12.3287L35.7791 10.3987L38.4212 12.3255C38.8311 12.6244 39.3619 12.6258 39.7735 12.3292C40.1851 12.0326 40.3509 11.5291 40.196 11.0464L39.1929 7.9219L41.8395 5.99192C42.2492 5.69314 42.4123 5.18888 42.2549 4.70724Z" fill="#EFC74C"/>
<path d="M57.3629 4.70724C57.1934 4.22559 56.7309 3.91436 56.1845 3.91436H52.661L51.5515 0.789892C51.3809 0.309587 50.9193 0 50.3745 0C50.3728 0 50.371 -1.40315e-08 50.3693 2.55273e-05C49.8222 0.00201775 49.3608 0.315436 49.1938 0.798499L48.1166 3.91436H44.5638C44.0161 3.91436 43.5532 4.22663 43.3846 4.70988C43.2159 5.19312 43.3938 5.69766 43.8377 5.99522L46.7123 7.9219L45.6059 11.0377C45.4346 11.5199 45.6095 12.0252 46.0514 12.3249C46.2734 12.4754 46.5282 12.5507 46.7831 12.5507C47.0357 12.5507 47.2884 12.4767 47.5093 12.3287L50.3889 10.3987L53.2342 12.3255C53.6756 12.6244 54.2473 12.6258 54.6906 12.3292C55.1338 12.0326 55.3124 11.5291 55.1456 11.0464L54.0653 7.9219L56.9155 5.99192C57.3567 5.69314 57.5323 5.18888 57.3629 4.70724Z" fill="#EFC74C"/>
<path fill-rule="evenodd" clip-rule="evenodd" d="M65.2167 10.7815V0L65.2124 2.64411e-05C64.6863 0.00208998 64.2425 0.326727 64.0819 0.827082L63.0458 4.05448H59.6287C59.1019 4.05448 58.6566 4.37793 58.4945 4.87847C58.3322 5.37901 58.5033 5.90161 58.9303 6.20982L61.6951 8.20547L60.6309 11.4328C60.4662 11.9323 60.6345 12.4556 61.0595 12.7661C61.273 12.922 61.518 13 61.7632 13C62.0062 13 62.2493 12.9234 62.4617 12.77L65.2167 10.7815Z" fill="#EFC74C"/>
<path d="M71.7013 4.95339L71.7013 4.95338C71.572 4.55747 71.2231 4.30448 70.8056 4.30448H67.4167H67.2359L67.1793 4.13277L66.1121 0.896457L66.3495 0.818166L66.1121 0.896454C65.9819 0.501589 65.6338 0.25 65.2175 0.25C65.2161 0.25 65.2158 0.250002 65.2159 0.250001L65.2134 0.250042C64.7954 0.251664 64.4474 0.50641 64.3199 0.903497L63.2839 4.1309L63.2281 4.30448H63.0458H59.6287C59.2101 4.30448 58.861 4.55827 58.7323 4.95553L58.7323 4.95554C58.6036 5.35273 58.7375 5.76234 59.0767 6.00711L59.0767 6.00711L61.8415 8.00276L61.9899 8.10991L61.9326 8.28376L60.8684 11.5111C60.7377 11.9075 60.8694 12.3177 61.207 12.5642L61.207 12.5642C61.3783 12.6893 61.5718 12.75 61.7632 12.75L71.7013 4.95339ZM71.7013 4.95339C71.8306 5.3492 71.6983 5.75866 71.3613 6.00441L71.3613 6.00441L68.62 8.00348L68.4741 8.10991L68.5293 8.28189L69.5683 11.5182C69.5683 11.5182 69.5683 11.5182 69.5683 11.5182C69.6956 11.9149 69.5611 12.3238 69.2225 12.5677C68.8839 12.8118 68.4525 12.8106 68.1153 12.5647L68.1153 12.5647L65.3786 10.569L65.232 10.4621L65.085 10.5682L62.3154 12.5673L62.3154 12.5673M71.7013 4.95339L62.3154 12.5673M62.3154 12.5673C62.1449 12.6903 61.9529 12.75 61.7632 12.75L62.3154 12.5673Z" stroke="#EFC74C" stroke-width="0.5"/>
</svg>
