<svg width="20" height="19" viewBox="0 0 20 19" fill="none" xmlns="http://www.w3.org/2000/svg">
<path fill-rule="evenodd" clip-rule="evenodd" d="M0 0H19.8018V19H0V0ZM0 0H19.8018V19H0V0Z" fill="#AECAD5"/>
<path fill-rule="evenodd" clip-rule="evenodd" d="M10.8251 1.6306L6.25419 6.01642C5.94891 6.30934 5.77564 6.71309 5.77564 7.13267V15.0414C5.77564 15.9122 6.51821 16.6247 7.42579 16.6247H14.8515C15.5115 16.6247 16.1056 16.2447 16.3696 15.6668L19.0593 9.64224C19.7524 8.07475 18.556 6.33309 16.7821 6.33309H12.1205L12.9043 2.70727C12.9868 2.31143 12.863 1.90769 12.566 1.62269C12.0792 1.16352 11.3036 1.16352 10.8251 1.6306ZM2.47534 16.6247C3.38293 16.6247 4.12549 15.9122 4.12549 15.0414V8.70808C4.12549 7.83725 3.38293 7.12475 2.47534 7.12475C1.56776 7.12475 0.825195 7.83725 0.825195 8.70808V15.0414C0.825195 15.9122 1.56776 16.6247 2.47534 16.6247Z" fill="#AECAD5"/>
</svg>
