<svg width="165" height="30" viewBox="0 0 165 30" fill="none" xmlns="http://www.w3.org/2000/svg">
<g opacity="0.5">
<path d="M0 29.9831V0.166669C0.813449 -0.0448545 56.1744 -0.0660069 57.1648 0.166669V30L0 29.9831ZM21.3056 6.49969V23.1762C21.9828 23.3011 22.6788 23.2765 23.3456 23.1043C23.5099 21.5433 23.2655 19.9949 23.4889 18.4212H24.5931C26.3802 18.4212 28.1673 18.4212 29.9501 18.4212C30.1341 18.4332 30.3126 18.489 30.4709 18.5839C30.6291 18.6788 30.7627 18.81 30.8605 18.9669C31.9142 20.1557 33.0016 21.3148 34.0005 22.5459C34.2245 22.856 34.5439 23.0836 34.9095 23.1937C35.275 23.3038 35.6665 23.2902 36.0236 23.1551C36.3017 21.7675 36.268 21.6533 35.4546 20.7479C34.8673 20.0936 34.2857 19.4365 33.7097 18.7765C33.5727 18.5885 33.4474 18.3921 33.3346 18.1885C33.5664 18.0447 33.756 17.9431 33.9035 17.8331C34.513 17.4635 35.0263 16.954 35.4014 16.3466C35.7766 15.7391 36.0028 15.051 36.0615 14.3388C36.162 13.0247 36.1549 11.7046 36.0404 10.3917C35.9053 9.27338 35.3589 8.24603 34.5082 7.51114C33.6575 6.77626 32.564 6.38687 31.4421 6.41933C28.4117 6.50817 25.3771 6.41933 22.3467 6.41933C22.0179 6.41933 21.6892 6.44894 21.3014 6.47009L21.3056 6.49969ZM52.7857 14.8041C52.7857 13.535 52.7857 12.2997 52.7857 11.0517C52.7477 8.77569 50.868 6.25856 48.0525 6.39817C46.139 6.49124 44.2129 6.41932 42.2909 6.39817C41.683 6.38819 41.0806 6.51484 40.5278 6.76885C39.975 7.02285 39.4859 7.39777 39.0961 7.86614C38.3379 8.70244 37.9068 9.78584 37.8823 10.9163C37.8317 13.4884 37.7938 16.0606 37.8823 18.6285C37.9708 21.1964 39.7874 23.3539 42.7419 23.2143C44.5922 23.1297 46.4467 23.2143 48.3012 23.2143C50.2779 23.2143 51.6182 22.1948 52.3558 20.4137C52.6105 19.7541 52.7529 19.0563 52.7773 18.3493C52.8447 17.169 52.7773 15.9844 52.7773 14.7999L52.7857 14.8041ZM4.78375 6.44893C4.5688 7.73923 4.61517 22.4274 4.81747 23.1805H6.81527V18.4339H8.0502C10.343 18.4339 12.6316 18.4339 14.9245 18.4339C17.2173 18.4339 19.076 17.0336 19.3963 14.7322C19.5944 13.2256 19.5944 11.6995 19.3963 10.1929C19.2339 9.11106 18.6779 8.12799 17.8357 7.43345C16.9935 6.73891 15.9248 6.38214 14.836 6.43202C11.8056 6.52086 8.76671 6.43202 5.73629 6.43202L4.78375 6.44893Z" fill="white"/>
<path d="M80.2288 23.1765H78.1425C78.1425 21.827 78.1425 20.5198 78.1425 19.2168C78.1425 17.9138 78.1425 16.5093 78.1425 15.1555V11.2423L77.8938 11.1662L71.7993 21.0866C69.6413 17.7276 67.6815 14.4067 65.5404 11.0012C65.2622 11.9276 65.4139 12.6934 65.3886 13.4845C65.3633 14.2756 65.3886 15.109 65.3886 15.9212V23.1765H63.3613V6.60148C63.4456 6.55071 63.4962 6.48726 63.5552 6.48303C65.3254 6.34765 65.3296 6.34764 66.2653 7.86215C67.8248 10.4004 69.3814 12.9317 70.9353 15.4559C71.1839 15.8535 71.4452 16.247 71.7782 16.725C71.9805 16.4458 72.1491 16.247 72.284 16.0312C74.0584 13.1587 75.8539 10.2989 77.5777 7.39681C77.9992 6.66071 78.4965 6.29265 79.3437 6.43649C79.6303 6.48302 79.9296 6.47879 80.2794 6.50417L80.2288 23.1765Z" fill="white"/>
<path d="M152.356 16.0438V20.8243H165V23.1764H150.215V6.63525C150.902 6.4068 163.217 6.31797 164.992 6.53796V8.8351H152.348V13.6367H155.787H162.775C162.968 14.4097 162.987 15.2161 162.83 15.9973C159.323 16.0396 155.837 15.9973 152.348 16.0311" fill="white"/>
<path d="M114.3 6.51684C114.321 6.89335 114.342 7.19373 114.351 7.48986C114.351 7.89175 114.351 8.29364 114.351 8.8436C112.863 8.86476 111.46 8.8436 110.056 8.8436H101.627V13.6156C103.384 13.6875 105.125 13.6367 106.857 13.6452C108.589 13.6537 110.347 13.6452 112.163 13.6452V15.9846C110.444 16.0735 108.707 16.01 106.975 16.0227C105.243 16.0354 103.481 16.0227 101.757 16.0227C101.521 16.7927 101.475 19.4875 101.673 20.8243H114.283V23.1765H99.6161C99.3927 22.3896 99.3548 7.62523 99.574 6.50415L114.3 6.51684Z" fill="white"/>
<path d="M147.887 23.206H145.91C145.86 22.0765 145.91 20.9723 145.885 19.8724C145.86 18.7725 145.885 17.7106 145.885 16.6276V10.0831L145.679 10.0154C145.472 10.2565 145.257 10.4892 145.055 10.7388C142.105 14.4785 139.125 18.1844 136.259 21.9834C135.416 23.0791 134.573 23.5148 133.275 23.1595C133.06 22.4826 132.971 8.44165 133.186 6.5337H135.23V19.5509C135.477 19.3368 135.712 19.1095 135.934 18.8698C138.914 15.1596 141.928 11.4749 144.832 7.70554C145.674 6.62254 146.517 6.17411 147.828 6.54639C148.039 7.22327 148.115 21.6661 147.887 23.206Z" fill="white"/>
<path d="M84.5856 23.2061H82.6173C82.3813 22.4911 82.3012 8.1244 82.5288 6.52951H84.4423C84.6868 7.2487 84.5308 8.02288 84.5561 8.78437C84.5814 9.54585 84.5561 10.4046 84.5561 11.2169V13.5817H95.1815V6.50837C95.6283 6.48298 95.9528 6.45337 96.2773 6.45337C96.6019 6.45337 96.8758 6.47875 97.2425 6.49568V23.1764H95.2068V16.0819H84.5856V23.2061Z" fill="white"/>
<path d="M130.864 23.2062C130.548 23.2062 130.286 23.2443 130.021 23.2486C129.688 23.2486 129.359 23.2486 128.879 23.2486C128.836 20.8287 128.879 18.4808 128.849 16.0821H118.219C118.219 17.2582 118.198 18.43 118.194 19.5976C118.19 20.7653 118.194 21.9498 118.194 23.1851H116.142V6.54239H118.068C118.329 7.23196 118.156 8.01038 118.186 8.77186C118.215 9.53335 118.186 10.3964 118.186 11.2044V13.5777H128.828C128.828 12.3931 128.828 11.2255 128.849 10.0537C128.87 8.88185 128.849 7.76077 128.849 6.53394H130.805C131.041 7.21081 131.121 21.7129 130.876 23.2062" fill="white"/>
<path d="M23.4083 8.91982C23.7413 8.8902 23.9394 8.8606 24.1333 8.8606C26.6243 8.8606 29.1153 8.8606 31.6063 8.8606C33.0562 8.8606 33.9371 9.70671 33.9961 11.162C34.0298 12.0082 34.0298 12.8543 33.9961 13.7004C33.9413 15.1769 33.1025 16.0145 31.64 16.0272C29.1111 16.0272 26.5821 16.0272 24.0532 16.0272C23.8888 16.0272 23.7245 15.9976 23.4421 15.9764C23.3156 13.6496 23.4041 11.3228 23.3915 8.92405" fill="white"/>
<path d="M40.0202 14.8047C40.0202 13.6539 40.0202 12.5032 40.0202 11.3567C40.0048 11.0177 40.0573 10.6791 40.1746 10.3608C40.2919 10.0425 40.4716 9.7511 40.703 9.50373C40.8998 9.29472 41.138 9.12921 41.4021 9.01776C41.6663 8.90631 41.9507 8.85137 42.2372 8.85645C44.2941 8.85645 46.3467 8.85645 48.4036 8.85645C48.9317 8.84255 49.4463 9.02553 49.848 9.37008C50.2496 9.71463 50.5098 10.1963 50.5784 10.7221C50.6354 11.056 50.6608 11.3946 50.6543 11.7333C50.6543 13.7936 50.6543 15.8581 50.6543 17.9184C50.6639 18.325 50.6243 18.7313 50.5363 19.1283C50.449 19.6016 50.2001 20.0295 49.8323 20.3384C49.4646 20.6472 49.0011 20.8178 48.5216 20.8205C46.4141 20.8586 44.2772 20.8671 42.1571 20.8205C40.8927 20.7909 40.0961 19.911 40.0497 18.5572C39.9991 17.3092 40.0497 16.0569 40.0497 14.8047H40.0202Z" fill="white"/>
<path d="M6.86683 15.9596V8.91568C7.18716 8.89453 7.44848 8.85645 7.7098 8.85645C10.0996 8.85645 12.4895 8.85645 14.8751 8.85645C16.5189 8.85645 17.3619 9.70256 17.404 11.3313C17.4251 12.1055 17.4335 12.884 17.404 13.6624C17.3366 15.1939 16.502 16.0061 14.9636 16.0146C12.5063 16.0146 10.0491 16.0146 7.59179 16.0146C7.36419 16.0146 7.13658 15.9765 6.8584 15.9511" fill="white"/>
</g>
</svg>
