<svg width="80" height="80" viewBox="0 0 80 80" fill="none" xmlns="http://www.w3.org/2000/svg">
<circle cx="40" cy="40" r="40" fill="#E9F3FA"/>
<mask id="mask0" mask-type="alpha" maskUnits="userSpaceOnUse" x="0" y="0" width="80" height="80">
<circle cx="40" cy="40" r="40" fill="#E9F3FA"/>
</mask>
<g mask="url(#mask0)">
<path d="M40.561 17.6001C49.0228 17.6001 55.8802 24.3667 55.8802 32.7177C55.8802 41.0775 49.0228 47.8428 40.561 47.8428C32.107 47.8428 25.2471 41.0775 25.2471 32.7177C25.2471 24.3667 32.107 17.6001 40.561 17.6001Z" fill="#237FC2"/>
<path d="M69.143 80.0007H69.1005H11.2002V71.389C11.2002 60.1498 19.2669 50.6198 30.5155 47.0674L40.1761 58.3597L49.8337 47.0674C61.0854 50.6198 69.143 60.1498 69.143 71.389V80.0007Z" fill="#237FC2"/>
</g>
</svg>
