<svg width="15" height="15" viewBox="0 0 15 15" fill="none" xmlns="http://www.w3.org/2000/svg">
<path fill-rule="evenodd" clip-rule="evenodd" d="M15 7.5C15 11.6421 11.6421 15 7.5 15C3.35786 15 0 11.6421 0 7.5C0 3.35786 3.35786 0 7.5 0C11.6421 0 15 3.35786 15 7.5ZM8.25 7.18927V2.25C8.25 1.83579 7.91421 1.5 7.5 1.5C7.08579 1.5 6.75 1.83579 6.75 2.25V7.76998L6.78083 7.77984L6.75004 7.81063L10.4623 11.5229L10.4624 11.5229C10.4624 11.5229 10.4625 11.5229 10.4625 11.523C10.7554 11.8159 11.2302 11.8159 11.5231 11.523C11.816 11.2301 11.816 10.7552 11.5231 10.4623C11.5208 10.46 11.5184 10.4576 11.5161 10.4553L8.25 7.18927Z" fill="#7C9BA9"/>
</svg>
