<svg width="355" height="64" viewBox="0 0 355 64" fill="none" xmlns="http://www.w3.org/2000/svg">
<g opacity="0.08">
<path d="M0 63.9639V0.355561C1.75015 -0.0956896 120.86 -0.140815 122.991 0.355561V64L0 63.9639ZM45.8394 13.866V49.4426C47.2962 49.7089 48.7938 49.6566 50.2283 49.2892C50.582 45.959 50.0561 42.6558 50.5367 39.2985H52.9125C56.7574 39.2985 60.6023 39.2985 64.4381 39.2985C64.8339 39.3242 65.2179 39.4432 65.5585 39.6456C65.8991 39.848 66.1864 40.1281 66.3968 40.4627C68.6638 42.9988 71.0034 45.4716 73.1526 48.0979C73.6346 48.7595 74.3218 49.245 75.1082 49.4799C75.8947 49.7147 76.7369 49.6857 77.5053 49.3975C78.1038 46.4373 78.0312 46.1936 76.2811 44.2623C75.0176 42.8664 73.7662 41.4645 72.5269 40.0566C72.2322 39.6554 71.9627 39.2364 71.7198 38.8021C72.2186 38.4953 72.6266 38.2787 72.944 38.044C74.2551 37.2555 75.3596 36.1686 76.1667 34.8727C76.9738 33.5768 77.4606 32.1088 77.5869 30.5894C77.803 27.7861 77.7878 24.9699 77.5415 22.169C77.2509 19.7832 76.0751 17.5915 74.2449 16.0238C72.4147 14.456 70.062 13.6253 67.6482 13.6946C61.1282 13.8841 54.5992 13.6946 48.0792 13.6946C47.3719 13.6946 46.6646 13.7577 45.8303 13.8029L45.8394 13.866ZM113.569 31.5821C113.569 28.8746 113.569 26.2393 113.569 23.5769C113.488 18.7215 109.443 13.3516 103.386 13.6494C99.2688 13.848 95.1246 13.6945 90.9896 13.6494C89.6817 13.6281 88.3856 13.8983 87.1963 14.4402C86.0069 14.9821 84.9544 15.7819 84.1159 16.7811C82.4846 18.5652 81.557 20.8765 81.5043 23.2881C81.3955 28.7753 81.3139 34.2626 81.5043 39.7407C81.6947 45.2189 85.6031 49.8217 91.9599 49.5239C95.9408 49.3434 99.9307 49.5239 103.921 49.5239C108.174 49.5239 111.057 47.3488 112.644 43.5493C113.192 42.1421 113.499 40.6533 113.551 39.1451C113.696 36.6271 113.551 34.1001 113.551 31.5731L113.569 31.5821ZM10.2923 13.7577C9.82985 16.5103 9.9296 47.8452 10.3649 49.4517H14.6632V39.3256H17.3201C22.2532 39.3256 27.1772 39.3256 32.1102 39.3256C37.0433 39.3256 41.0423 36.3383 41.7315 31.4287C42.1577 28.2147 42.1577 24.9589 41.7315 21.7449C41.382 19.4369 40.1857 17.3397 38.3737 15.858C36.5618 14.3763 34.2625 13.6152 31.9198 13.7216C25.3998 13.9112 18.8617 13.7216 12.3417 13.7216L10.2923 13.7577Z" fill="#237FC2"/>
<path d="M172.613 49.4431H168.124C168.124 46.5641 168.124 43.7754 168.124 40.9957C168.124 38.216 168.124 35.2197 168.124 32.3316V23.9835L167.589 23.821L154.477 44.9847C149.834 37.8188 145.617 30.7342 141.01 23.4691C140.412 25.4456 140.738 27.0791 140.684 28.7668C140.63 30.4544 140.684 32.2324 140.684 33.9652V49.4431H136.322V14.0831C136.504 13.9748 136.612 13.8394 136.739 13.8304C140.548 13.5416 140.557 13.5415 142.57 16.7725C145.925 22.1875 149.275 27.5875 152.618 32.9724C153.153 33.8208 153.715 34.6601 154.431 35.6799C154.867 35.0843 155.229 34.6601 155.519 34.1998C159.337 28.0718 163.2 21.9709 166.909 15.7798C167.816 14.2094 168.886 13.4242 170.709 13.7311C171.325 13.8303 171.969 13.8213 172.722 13.8755L172.613 49.4431Z" fill="#237FC2"/>
<path d="M327.796 34.227V44.4252H355V49.4432H323.189V14.1553C324.668 13.668 351.165 13.4785 354.982 13.9478V18.8483H327.778V29.0917H335.178H350.212C350.628 30.7407 350.668 32.4612 350.33 34.1277C342.786 34.2179 335.286 34.1277 327.778 34.1999" fill="#237FC2"/>
<path d="M245.92 13.9026C245.965 14.7058 246.01 15.3466 246.028 15.9783C246.028 16.8357 246.028 17.6931 246.028 18.8663C242.827 18.9114 239.808 18.8663 236.788 18.8663H218.652V29.0465C222.433 29.2 226.178 29.0917 229.905 29.1097C233.632 29.1278 237.414 29.1097 241.322 29.1097V34.1006C237.622 34.2901 233.886 34.1547 230.159 34.1818C226.432 34.2089 222.642 34.1818 218.933 34.1818C218.425 35.8243 218.325 41.5733 218.751 44.4252H245.883V49.4431H214.326C213.846 47.7644 213.764 16.2671 214.236 13.8755L245.92 13.9026Z" fill="#237FC2"/>
<path d="M318.182 49.5062H313.929C313.82 47.0965 313.929 44.741 313.874 42.3945C313.82 40.048 313.874 37.7827 313.874 35.4723V21.5106L313.43 21.3662C312.986 21.8806 312.523 22.377 312.088 22.9095C305.74 30.8876 299.329 38.7935 293.163 46.898C291.349 49.2355 289.535 50.165 286.743 49.4069C286.28 47.9629 286.09 18.0089 286.552 13.9386H290.95V41.7086C291.481 41.2519 291.987 40.7669 292.465 40.2556C298.876 32.3406 305.359 24.4798 311.607 16.4385C313.421 14.1281 315.235 13.1715 318.055 13.9657C318.508 15.4097 318.671 46.2211 318.182 49.5062Z" fill="#237FC2"/>
<path d="M181.988 49.5064H177.753C177.245 47.9812 177.073 17.3322 177.562 13.9298H181.679C182.205 15.464 181.87 17.1156 181.924 18.7401C181.979 20.3646 181.924 22.1967 181.924 23.9295V28.9745H204.785V13.8847C205.746 13.8305 206.444 13.7673 207.143 13.7673C207.841 13.7673 208.43 13.8215 209.219 13.8576V49.4432H204.839V34.3083H181.988V49.5064Z" fill="#237FC2"/>
<path d="M281.556 49.5064C280.876 49.5064 280.314 49.5877 279.742 49.5967C279.026 49.5967 278.319 49.5967 277.285 49.5967C277.194 44.4344 277.285 39.4255 277.221 34.3083H254.351C254.351 36.8173 254.306 39.3172 254.297 41.8081C254.288 44.299 254.297 46.826 254.297 49.4613H249.881V13.9569H254.025C254.587 15.428 254.215 17.0886 254.279 18.7131C254.342 20.3376 254.279 22.1787 254.279 23.9025V28.9655H277.176C277.176 26.4385 277.176 23.9476 277.221 21.4477C277.267 18.9477 277.221 16.5561 277.221 13.9388H281.429C281.937 15.3828 282.109 46.3206 281.583 49.5064" fill="#237FC2"/>
<path d="M50.364 19.0288C51.0804 18.9656 51.5066 18.9025 51.9238 18.9025C57.2832 18.9025 62.6426 18.9025 68.002 18.9025C71.1215 18.9025 73.0168 20.7075 73.1437 23.8122C73.2163 25.6173 73.2163 27.4223 73.1437 29.2274C73.0258 32.3772 71.2212 34.1642 68.0745 34.1912C62.6335 34.1912 57.1925 34.1912 51.7515 34.1912C51.3978 34.1912 51.0441 34.1281 50.4366 34.0829C50.1645 29.1191 50.3549 24.1552 50.3277 19.0378" fill="#237FC2"/>
<path d="M86.1033 31.583C86.1033 29.1282 86.1033 26.6733 86.1033 24.2275C86.0702 23.5043 86.1832 22.7818 86.4355 22.1029C86.6879 21.4239 87.0744 20.8021 87.5723 20.2744C87.9959 19.8285 88.5082 19.4754 89.0765 19.2377C89.6449 18.9999 90.2568 18.8827 90.8732 18.8935C95.2986 18.8935 99.7149 18.8935 104.14 18.8935C105.277 18.8639 106.384 19.2542 107.248 19.9893C108.112 20.7243 108.672 21.7519 108.819 22.8737C108.942 23.586 108.997 24.3082 108.983 25.0307C108.983 29.426 108.983 33.8303 108.983 38.2256C109.003 39.0931 108.918 39.9598 108.729 40.8068C108.541 41.8165 108.005 42.7294 107.214 43.3883C106.423 44.0472 105.426 44.411 104.394 44.4169C99.86 44.4982 95.2623 44.5162 90.7009 44.4169C87.9804 44.3538 86.2665 42.4765 86.1668 39.5884C86.0579 36.926 86.1668 34.2545 86.1668 31.583H86.1033Z" fill="#237FC2"/>
<path d="M14.773 34.0474V19.0204C15.4622 18.9753 16.0245 18.894 16.5867 18.894C21.7285 18.894 26.8702 18.894 32.0029 18.894C35.5396 18.894 37.3532 20.6991 37.4439 24.1738C37.4893 25.8254 37.5074 27.4861 37.4439 29.1467C37.2988 32.4139 35.5033 34.1467 32.1933 34.1648C26.9065 34.1648 21.6196 34.1648 16.3328 34.1648C15.8431 34.1648 15.3534 34.0836 14.7549 34.0294" fill="#237FC2"/>
</g>
</svg>
