<svg width="18" height="12" viewBox="0 0 18 12" fill="none" xmlns="http://www.w3.org/2000/svg">
<path d="M9.00045 3.60107C7.64634 3.60107 6.5459 4.67705 6.5459 6.00105C6.5459 7.32505 7.64634 8.40102 9.00045 8.40102C10.3546 8.40102 11.455 7.32505 11.455 6.00105C11.455 4.67705 10.3545 3.60107 9.00045 3.60107Z" fill="#7C9BA9"/>
<path d="M9 0C4.90908 0 1.41547 2.48798 0 6C1.41547 9.51199 4.90908 12 9 12C13.095 12 16.5845 9.51199 18 6C16.5845 2.48798 13.095 0 9 0ZM9 9.99998C6.74182 9.99998 4.90908 8.20796 4.90908 5.99996C4.90908 3.79196 6.74182 1.99999 9 1.99999C11.2582 1.99999 13.0909 3.792 13.0909 6C13.0909 8.208 11.2582 9.99998 9 9.99998Z" fill="#7C9BA9"/>
</svg>
